# xmcd CD database file
#
# Track frame offsets:
#	150
#	12448
#	26461
#	36990
#	50387
#	62232
#	74538
#	86176
#	97252
#	109603
#	127399
#	138828
#	149656
#	159273
#
# Disc length: 2262 seconds
#
# Revision: 0
# Processed by: cddbd v1.5.1PL2 Copyright (c) Steve Scherf et al.
# Submitted via: CDex 1.51
#
DISCID=d208d40e
DTITLE=Assorted - Kings of Country Rock
DYEAR=1960
DGENRE=Country
TTITLE0=Okie From Muskogee (haggard)
TTITLE1=Wichita Lineman (Campbell)
TTITLE2=Wings of a Dove (Husky)
TTITLE3=So Round, So Firm (Travis)
TTITLE4=Only The Lonely (James)
TTITLE5=Smoke Smoke Smoke (Williams)
TTITLE6=Shot Gun Boogie (Ford)
TTITLE7=Easy Loving (Hart)
TTITLE8=Dont Let The Stars Get in your eyes (McDonald)
TTITLE9=Honey (Goldsboro)
TTITLE10=Its Such A Pretty World Today (Stewart)
TTITLE11=Hello Walls (Young)
TTITLE12=I dont believe you have met my baby (Louvin Bros)
TTITLE13=Wake Up, Irene (Thompson and Brazos Valley)
EXTD=YEAR: 1960
EXTT0=
EXTT1=
EXTT2=
EXTT3=
EXTT4=
EXTT5=
EXTT6=
EXTT7=
EXTT8=
EXTT9=
EXTT10=
EXTT11=
EXTT12=
EXTT13=
PLAYORDER=
